<svg width="462" height="62" viewBox="0 0 462 62" fill="none" xmlns="http://www.w3.org/2000/svg">
<path d="M171.423 11.709H121.547V21.4706H171.423V11.709Z" fill="url(#paint0987)"/>
<path d="M171.427 11.709H161.602V21.558H171.427V11.709Z" fill="#041836"/>
<path d="M457.839 5.66406H164.689V56.7263H457.839V5.66406Z" fill="#041836"/>
<path d="M207.082 47.5894H198.712V35.8336H183.671V47.5894H175.357V17.9199H183.671V29.2559H198.712V17.9199H207.08L207.082 47.5894Z" fill="white"/>
<path d="M222.575 48.1954C218.791 48.1954 215.683 47.0561 213.37 44.8081C211.47 42.9931 210.926 41.528 210.926 38.307V32.2672C210.926 29.0396 211.474 27.5789 213.372 25.7639C215.725 23.4853 218.819 22.3307 222.575 22.3307C225.866 22.2985 229.062 23.4384 231.602 25.5496V22.9255H239.972V47.5918H231.615V45.0683C229.049 47.131 225.856 48.2358 222.575 48.1954ZM224.463 29.1905C222.896 29.1905 221.545 29.5929 220.452 30.3888C220.084 30.622 219.783 30.9486 219.58 31.3358C219.377 31.7231 219.278 32.1574 219.294 32.5952V37.9855C219.279 38.4221 219.378 38.8549 219.58 39.2411C219.783 39.6274 220.082 39.9536 220.447 40.1876C221.545 40.9857 222.896 41.3859 224.463 41.3859C226.814 41.3859 230.06 39.8268 231.619 37.9637V32.5734C230.071 30.73 226.833 29.1905 224.463 29.1905Z" fill="white"/>
<path d="M259.536 48.1964C253.308 48.1964 249.058 47.2627 246.526 45.3537C244.435 43.7115 243.73 42.0299 243.73 38.6886V31.9097C243.73 28.7455 244.307 27.3307 246.2 25.8503C249.262 23.5236 253.356 22.3516 258.344 22.3516C261.308 22.3522 264.263 22.6658 267.163 23.2875L267.399 23.34V30.1603L267.026 30.0904C264.161 29.5272 261.25 29.2344 258.331 29.2157C256.088 29.2157 254.427 29.5787 253.243 30.3287C252.877 30.5708 252.578 30.9049 252.378 31.2982C252.178 31.6915 252.082 32.1305 252.101 32.5723V38.0391C252.082 38.483 252.178 38.9242 252.381 39.3189C252.583 39.7135 252.884 40.048 253.254 40.2892C254.423 41.0283 256.088 41.3826 258.331 41.3826C261.251 41.382 264.163 41.0728 267.02 40.4598L267.399 40.3789V47.2605L267.147 47.313C264.646 47.8634 262.096 48.1593 259.536 48.1964Z" fill="white"/>
<path d="M298.91 47.59H288.591L282.105 38.0646H279.492V47.59H271.176V14.2031H279.492V31.5373H282.105L288.326 22.9391H297.78L289.384 34.3647L298.91 47.59Z" fill="white"/>
<path d="M310.897 48.1954C307.115 48.1954 304.008 47.0561 301.696 44.8081C299.794 42.9931 299.248 41.528 299.248 38.307V32.2672C299.248 29.0396 299.799 27.5789 301.696 25.7639C304.049 23.4853 307.143 22.3307 310.897 22.3307C314.189 22.2986 317.386 23.4384 319.926 25.5496V22.9255H328.296V47.5918H319.926V45.0683C317.364 47.1293 314.174 48.234 310.897 48.1954ZM312.788 29.1905C311.218 29.1905 309.869 29.5929 308.776 30.3888C308.41 30.6222 308.11 30.9487 307.909 31.3357C307.706 31.7231 307.606 32.1572 307.62 32.5952V37.9855C307.607 38.4222 307.706 38.8549 307.909 39.241C308.112 39.6272 308.41 39.9534 308.776 40.1876C309.873 40.9857 311.222 41.3859 312.792 41.3859C315.143 41.3859 318.389 39.8268 319.948 37.9637V32.5734C318.404 30.73 315.16 29.1905 312.788 29.1905Z" fill="white"/>
<path d="M344.456 48.1977C340.021 48.1977 336.988 47.4783 335.192 45.9891C333.117 44.3097 332.449 42.5144 332.449 38.5871V17.4043H340.765V22.9345H351.319V29.4706H340.765V38.2175C340.765 39.3765 341.06 40.1856 341.663 40.6667C342.576 41.3686 343.855 41.7119 345.566 41.7119C347.372 41.7215 349.173 41.5211 350.933 41.1149L351.319 41.0253V47.2246L351.117 47.3056C349.534 47.9025 347.357 48.1977 344.456 48.1977Z" fill="white"/>
<path d="M382.58 47.59H374.21V32.4513C374.233 32.0183 374.143 31.5868 373.948 31.2002C373.753 30.8137 373.461 30.4857 373.1 30.2493L373.078 30.234C372.211 29.5386 370.856 29.1866 369.039 29.1866C366.812 29.1866 364.732 30.2624 362.861 32.3814V47.5878H354.547V14.2031H362.861V25.7928C365.27 23.4967 368.015 22.3312 371.025 22.3312C374.791 22.3312 377.855 23.4245 380.132 25.5763C382.032 27.3956 382.583 28.8564 382.583 32.1364L382.58 47.59Z" fill="white"/>
<path d="M400.824 48.1955C395.68 48.1955 391.716 47.0649 388.707 44.7383C386.805 43.2557 386.232 41.8408 386.232 38.6788V31.9C386.232 28.7358 386.809 27.321 388.704 25.8406C391.764 23.5139 395.832 22.3418 400.822 22.3418C405.731 22.3418 409.795 23.5204 412.898 25.8406C414.774 27.3428 415.376 28.8255 415.376 31.9481V38.6439C415.376 41.7578 414.774 43.2491 412.906 44.747C409.888 47.0321 405.822 48.1955 400.824 48.1955ZM400.824 29.1885C398.58 29.1885 396.921 29.5514 395.739 30.3015C395.371 30.543 395.072 30.8769 394.872 31.2703C394.671 31.6637 394.575 32.103 394.594 32.5451V38.0381C394.575 38.4818 394.672 38.9228 394.874 39.3174C395.076 39.7103 395.375 40.0445 395.741 40.2883C396.91 41.0274 398.573 41.3816 400.817 41.3816C402.919 41.3816 404.599 40.9924 405.805 40.2205C406.187 39.9921 406.499 39.6627 406.709 39.268C406.918 38.8733 407.016 38.4283 406.993 37.9813V32.591C407.017 32.1433 406.918 31.6977 406.709 31.3023C406.499 30.9069 406.187 30.5767 405.805 30.3474C404.606 29.5777 402.925 29.1885 400.824 29.1885Z" fill="white"/>
<path d="M447.182 47.5909H438.811V32.4522C438.834 32.0201 438.743 31.5896 438.549 31.2036C438.355 30.8177 438.064 30.4897 437.705 30.2523L437.686 30.237C436.819 29.5417 435.463 29.1896 433.646 29.1896C431.419 29.1896 429.337 30.2655 427.468 32.3844V47.5909H419.152V22.9334H427.468V25.7936C429.88 23.4976 432.625 22.332 435.635 22.332C439.401 22.332 442.465 23.4254 444.742 25.5793C446.642 27.3965 447.19 28.8594 447.19 32.1395L447.182 47.5909Z" fill="white"/>
<path d="M280.171 1.45312H230.295V11.2147H280.171V1.45312Z" fill="url(#paint1987)"/>
<path d="M200.376 51.5H150.5V61.2616H200.376V51.5Z" fill="url(#paint2987)"/>
<path d="M384.376 51.5H334.5V61.2616H384.376V51.5Z" fill="url(#paint3987)"/>
<path d="M280.173 1.45312H270.348V11.3021H280.173V1.45312Z" fill="#041836"/>
<path d="M461.937 0.0214844H419.322V10.7824H461.937V0.0214844Z" fill="url(#paint4987)"/>
<path fill-rule="evenodd" clip-rule="evenodd" d="M55.7578 32.6259C55.7584 37.9917 54.1678 43.2372 51.187 47.699C48.2063 52.1608 43.9694 55.6384 39.0121 57.6921C34.0548 59.7458 28.5999 60.2834 23.3371 59.2367C18.0743 58.19 13.2401 55.6062 9.44588 51.8119C5.65165 48.0177 3.06781 43.1835 2.02114 37.9207C0.974459 32.658 1.51196 27.203 3.56566 22.2457C5.61936 17.2884 9.09702 13.0515 13.5588 10.0708C18.0206 7.09004 23.2661 5.4994 28.632 5.5C35.8259 5.50081 42.725 8.35896 47.8119 13.4459C52.8988 18.5328 55.757 25.4319 55.7578 32.6259ZM20.9341 43.4212H15.68C14.5742 43.4212 14.0274 43.4212 13.6944 43.2074C13.5177 43.0935 13.3702 42.9396 13.2641 42.7581C13.1579 42.5765 13.0961 42.3726 13.0835 42.1627C13.0651 41.7686 13.337 41.289 13.8838 40.3298L26.8816 17.4195C27.4345 16.4481 27.7156 15.9624 28.0699 15.7822C28.2586 15.6842 28.4682 15.633 28.6808 15.633C28.8935 15.633 29.1031 15.6842 29.2918 15.7822C29.6431 15.9624 29.9241 16.4481 30.477 17.4195L33.1499 22.084V22.1085C33.7608 23.1532 34.051 23.6816 34.1824 24.2468C34.329 24.8551 34.329 25.4896 34.1824 26.0979C34.051 26.66 33.7486 27.1915 33.1438 28.2362L26.3165 40.3054L26.2982 40.3359C25.6872 41.3898 25.3818 41.9244 24.9694 42.3246C24.5118 42.762 23.9569 43.0845 23.3504 43.2654C22.8036 43.4212 22.1835 43.4212 20.9433 43.4212H20.9341ZM34.2282 43.4212H41.7733C42.8853 43.4212 43.4443 43.4212 43.7803 43.2013C43.9579 43.0868 44.1058 42.9319 44.212 42.7492C44.3182 42.5666 44.3796 42.3614 44.3912 42.1504C44.4096 41.7686 44.1438 41.3073 43.6184 40.4031L43.5665 40.3084L39.7878 33.8447L39.745 33.7744C39.2135 32.8763 38.9447 32.4212 38.5995 32.2471C38.4126 32.1521 38.2059 32.1026 37.9962 32.1026C37.7865 32.1026 37.5798 32.1521 37.3929 32.2471C37.0477 32.4273 36.7667 32.9008 36.2138 33.8539L32.4504 40.3176V40.339C31.9005 41.289 31.6256 41.7656 31.6439 42.1718C31.6565 42.3826 31.7183 42.5874 31.8244 42.7699C31.9305 42.9524 32.078 43.1074 32.2549 43.2226C32.5664 43.4212 33.1254 43.4212 34.2374 43.4212H34.2282Z" fill="white"/>
<g fx="-5.48997" y="-1.18528" width="67.3706" height="67.3706" filterUnits="userSpaceOnUse" color-interpolation-filters="sRGB">
<path d="M28.1953 60.5C43.6593 60.5 56.1953 47.964 56.1953 32.5C56.1953 17.036 43.6593 4.5 28.1953 4.5C12.7313 4.5 0.195312 17.036 0.195312 32.5C0.195312 47.964 12.7313 60.5 28.1953 60.5Z" fill="#041836"/>
</g>
<path d="M44.1066 43.6068L44.0879 43.5977C44.0318 43.6804 43.9663 43.7631 43.9102 43.8458C43.9756 43.7631 44.0505 43.6896 44.1066 43.6068Z" fill="#041836"/>
<path d="M48.6484 28.7687C48.4845 22.3436 43.1366 17.1875 36.5588 17.1875C33.3246 17.1875 30.4001 18.4386 28.2227 20.4671C26.0635 18.4386 23.1481 17.1875 19.9412 17.1875C13.3634 17.1875 8.01555 22.4062 7.85156 28.9117V28.9564V29.0011C7.85156 33.9517 9.68278 38.3483 11.3591 41.3687C12.2064 42.9057 13.0628 44.1567 13.7096 45.0325C14.0285 45.4704 14.3109 45.8189 14.5113 46.0691C14.6116 46.1942 14.6936 46.2925 14.7573 46.364C14.7847 46.3997 14.812 46.4265 14.8302 46.4533C14.8393 46.4623 14.8484 46.4712 14.8575 46.4801L14.8667 46.4891L14.8758 46.498C16.2788 48.0976 18.7204 48.2584 20.333 46.8644C21.9364 45.4704 22.1004 43.0487 20.7065 41.4491C20.7065 41.4491 20.7065 41.4491 20.7065 41.4402C20.7065 41.4312 20.6974 41.4223 20.6792 41.4134C20.6518 41.3776 20.6063 41.324 20.5334 41.2436C20.4058 41.0827 20.2054 40.8325 19.9594 40.4929C19.4675 39.8227 18.8024 38.8487 18.1464 37.6512C16.7981 35.2206 15.6137 32.1555 15.5955 29.0457C15.6775 26.7224 17.5998 24.8636 19.9503 24.8636C22.3191 24.8636 24.2505 26.7402 24.3051 29.0904C24.3234 29.6891 24.4782 30.2521 24.7333 30.7525C25.28 32.1913 26.6921 33.2189 28.3502 33.2189C30.4821 33.2189 32.2131 31.5211 32.2131 29.4211V28.9117C32.2951 26.6151 34.2174 24.7832 36.5679 24.7832C38.9184 24.7832 40.8407 26.6241 40.9227 28.9117C40.9136 31.4138 40.0937 33.8713 39.1735 35.8193C38.718 36.7755 38.2716 37.5529 37.9436 38.0891C37.7796 38.3572 37.6429 38.5538 37.5609 38.6789C37.5154 38.7414 37.4881 38.7861 37.4698 38.804C37.4607 38.8129 37.4607 38.8219 37.4516 38.8219C37.4425 38.8397 37.4152 38.8755 37.4152 38.8755C38.1258 37.9998 39.21 37.4457 40.4399 37.4457C42.5717 37.4457 44.3027 39.1436 44.3027 41.2346C44.3027 41.9942 44.075 42.6912 43.6832 43.2899C43.7014 43.2989 43.7014 43.2989 43.7014 43.2989V43.2899L43.7105 43.281C43.7197 43.2721 43.7197 43.2631 43.7288 43.2542C43.747 43.2363 43.7652 43.2095 43.7834 43.1738C43.829 43.1112 43.8836 43.0308 43.9565 42.9236C44.1023 42.718 44.2936 42.4231 44.5214 42.0568C44.9769 41.324 45.5782 40.2874 46.1795 39.0095C47.3639 36.5074 48.6393 32.8972 48.6393 28.8581V28.8134L48.6484 28.7687Z" fill="white"/>
<path d="M40.4453 37.4219C39.2355 37.4219 38.152 37.9907 37.4478 38.8665C36.9242 39.5165 36.6172 40.3471 36.6172 41.25C36.6172 43.3627 38.3326 45.0781 40.4453 45.0781C41.6913 45.0781 42.7837 44.4822 43.4879 43.5703C43.5511 43.4891 43.6053 43.4078 43.6595 43.3266C44.0477 42.7307 44.2734 42.0174 44.2734 41.25C44.2734 39.1373 42.567 37.4219 40.4453 37.4219Z" fill="#B7E803"/>
<rect x="102" y="15" width="34" height="32" fill="white"/>
<path fill-rule="evenodd" clip-rule="evenodd" d="M145.758 32.6259C145.758 37.9917 144.168 43.2372 141.187 47.699C138.206 52.1608 133.969 55.6384 129.012 57.6921C124.055 59.7458 118.6 60.2834 113.337 59.2367C108.074 58.19 103.24 55.6062 99.4459 51.8119C95.6517 48.0177 93.0678 43.1835 92.0211 37.9207C90.9745 32.658 91.512 27.203 93.5657 22.2457C95.6194 17.2884 99.097 13.0515 103.559 10.0708C108.021 7.09004 113.266 5.4994 118.632 5.5C125.826 5.50081 132.725 8.35896 137.812 13.4459C142.899 18.5328 145.757 25.4319 145.758 32.6259ZM110.934 43.4212H105.68C104.574 43.4212 104.027 43.4212 103.694 43.2074C103.518 43.0935 103.37 42.9396 103.264 42.7581C103.158 42.5765 103.096 42.3726 103.083 42.1627C103.065 41.7686 103.337 41.289 103.884 40.3298L116.882 17.4195C117.435 16.4481 117.716 15.9624 118.07 15.7822C118.259 15.6842 118.468 15.633 118.681 15.633C118.894 15.633 119.103 15.6842 119.292 15.7822C119.643 15.9624 119.924 16.4481 120.477 17.4195L123.15 22.084V22.1085C123.761 23.1532 124.051 23.6816 124.182 24.2468C124.329 24.8551 124.329 25.4896 124.182 26.0979C124.051 26.66 123.749 27.1915 123.144 28.2362L116.316 40.3054L116.298 40.3359C115.687 41.3898 115.382 41.9244 114.969 42.3246C114.512 42.762 113.957 43.0845 113.35 43.2654C112.804 43.4212 112.183 43.4212 110.943 43.4212H110.934ZM124.228 43.4212H131.773C132.885 43.4212 133.444 43.4212 133.78 43.2013C133.958 43.0868 134.106 42.9319 134.212 42.7492C134.318 42.5666 134.38 42.3614 134.391 42.1504C134.41 41.7686 134.144 41.3073 133.618 40.4031L133.566 40.3084L129.788 33.8447L129.745 33.7744C129.213 32.8763 128.945 32.4212 128.599 32.2471C128.413 32.1521 128.206 32.1026 127.996 32.1026C127.787 32.1026 127.58 32.1521 127.393 32.2471C127.048 32.4273 126.767 32.9008 126.214 33.8539L122.45 40.3176V40.339C121.901 41.289 121.626 41.7656 121.644 42.1718C121.657 42.3826 121.718 42.5874 121.824 42.7699C121.931 42.9524 122.078 43.1074 122.255 43.2226C122.566 43.4212 123.125 43.4212 124.237 43.4212H124.228Z" fill="#041836"/>
<line x1="64.6549" y1="24.0404" x2="80.6549" y2="40.0404" stroke="white" stroke-width="1.3"/>
<line x1="80.6549" y1="24.9596" x2="64.6549" y2="40.9596" stroke="white" stroke-width="1.3"/>
<defs>
<filter id="filter987" x="-5.48997" y="-1.18528" width="67.3706" height="67.3706" filterUnits="userSpaceOnUse" color-interpolation-filters="sRGB">
<feFlood flood-opacity="0" result="BackgroundImageFix"/>
<feGaussianBlur in="BackgroundImage" stdDeviation="2.84264"/>
<feComposite in2="SourceAlpha" operator="in" result="effect1987"/>
<feBlend mode="normal" in="SourceGraphic" in2="effect1987" result="shape"/>
</filter>
<linearGradient id="paint0987" x1="121.547" y1="16.5898" x2="171.425" y2="16.5898" gradientUnits="userSpaceOnUse">
<stop stop-color="#FD9F9A" stop-opacity="0"/>
<stop offset="1" stop-color="#041836"/>
</linearGradient>
<linearGradient id="paint1987" x1="230.295" y1="6.3339" x2="280.171" y2="6.3339" gradientUnits="userSpaceOnUse">
<stop stop-color="#041836" stop-opacity="0"/>
<stop offset="1" stop-color="#041836"/>
</linearGradient>
<linearGradient id="paint2987" x1="150.5" y1="56.3808" x2="200.376" y2="56.3808" gradientUnits="userSpaceOnUse">
<stop stop-color="#041836" stop-opacity="0"/>
<stop offset="1" stop-color="#041836"/>
</linearGradient>
<linearGradient id="paint3987" x1="334.5" y1="56.3808" x2="384.376" y2="56.3808" gradientUnits="userSpaceOnUse">
<stop stop-color="#041836" stop-opacity="0"/>
<stop offset="1" stop-color="#041836"/>
</linearGradient>
<linearGradient id="paint4987" x1="199913" y1="6491.9" x2="191538" y2="6491.9" gradientUnits="userSpaceOnUse">
<stop stop-color="#FD9F9A" stop-opacity="0"/>
<stop offset="1" stop-color="#041836"/>
</linearGradient>
</defs>
</svg>
